<?xml version="1.0" encoding="utf-8"?>
<!-- Generator: Adobe Illustrator 23.0.2, SVG Export Plug-In . SVG Version: 6.00 Build 0)  -->
<svg version="1.1" xmlns="http://www.w3.org/2000/svg" xmlns:xlink="http://www.w3.org/1999/xlink" x="0px" y="0px"
	 viewBox="0 0 220.9 186.9" style="enable-background:new 0 0 220.9 186.9;" xml:space="preserve">
<style type="text/css">
	.st0{display:none;}
	.st1{display:inline;fill:#FFFFFF;}
	.st2{fill:#FFFFFF;stroke:#000000;stroke-width:15;}
	.st3{fill:none;stroke:#000000;stroke-width:15;}
</style>
<g id="Camada_1" class="st0">
	
		<image style="display:inline;overflow:visible;" width="256" height="256" xlink:href="../../../spend_wallet_invest-256.png"  transform="matrix(1 0 0 1 -15.3708 -32.1461)">
	</image>
	<path class="st1" d="M-48.1-2"/>
</g>
<g id="Camada_2">
	<path class="st2" d="M14.2,16.6c-5.8,0,42.7,0,36.8,0"/>
	<path class="st3" d="M78.5,16.6c-6.5,0,71.8,0,71.8,0c13.7,0,24.9,11.1,24.9,24.9v7.9"/>
	<path class="st3" d="M32.6,45.7c0-12.7,0,102.6,0,102.6c0,15.7,12.8,28.5,28.5,28.5h101.8c15.7,0,28.5-12.8,28.5-28.5v-19.7"/>
	<path class="st3" d="M193.4,127H163c-4.9,0-9.4-2.3-12.3-6.2l0,0c-4.2-5.6-4-13.4,0.4-18.8l0.4-0.5c2.9-3.6,7.3-5.6,11.9-5.6h30
		c8.5,0,15.3,6.9,15.3,15.3v0.5C208.7,120.1,201.9,127,193.4,127z"/>
	<path class="st3" d="M61.9,47.7c-13.9,0,111.2,0,111.2,0c10.1,0,18.2,8.1,18.2,18.2"/>
</g>
</svg>
