<svg width="204" height="176" viewBox="0 0 204 176" fill="none" xmlns="http://www.w3.org/2000/svg">
<path d="M1.2 7.60001C-4.6 7.60001 43.9 7.60001 38 7.60001" stroke="#1CFEBA" stroke-width="15"/>
<path d="M65.5 7.60001C59 7.60001 137.3 7.60001 137.3 7.60001C151 7.60001 162.2 18.7 162.2 32.5V40.4" stroke="#1CFEBA" stroke-width="15"/>
<path d="M19.6 36.7C19.6 24 19.6 139.3 19.6 139.3C19.6 155 32.4 167.8 48.1 167.8H149.9C165.6 167.8 178.4 155 178.4 139.3V119.6" stroke="#1CFEBA" stroke-width="15"/>
<path d="M180.4 118H150C145.1 118 140.6 115.7 137.7 111.8C133.5 106.2 133.7 98.4 138.1 93L138.5 92.5C141.4 88.9 145.8 86.9 150.4 86.9H180.4C188.9 86.9 195.7 93.8 195.7 102.2V102.7C195.7 111.1 188.9 118 180.4 118Z" stroke="#1CFEBA" stroke-width="15"/>
<path d="M48.9 38.7C35 38.7 160.1 38.7 160.1 38.7C170.2 38.7 178.3 46.8 178.3 56.9" stroke="#1CFEBA" stroke-width="15"/>
</svg>
